# xmcd
#
# Track frame offsets:
#	150
#	16314
#	35048
#	50481
#	67781
#	83983
#	98354
#	115585
#	129252
#	146251
#	164206
#	182075
#	197412
#	214171
#	231771
#	250284
#	266380
#
# Disc length: 3794
#
# Revision: 2
# Processed by: cddbd v1.5.1PL0 Copyright (c) Steve Scherf et al.
# Submitted via: audiograbber 1.82.02
# Normalized: r1:DSETVAR1
#
DISCID=e00ed011
DTITLE=Various Artist - Top Hits USA RC77
DYEAR=2003
DGENRE=Country
TTITLE0=Lonestar - My Front Porch Looking In
TTITLE1=Tim McGraw - She's My Kind Of Rain
TTITLE2=Deana Carter - There's No Limit
TTITLE3=Toby Keith - Rock You Baby
TTITLE4=Diamond Rio - I Believe
TTITLE5=Rascal Flatts - Love You Out Loud
TTITLE6=Jimmy Wayne - Stay Gone
TTITLE7=Tammy Cochran - Love Won't Let Me
TTITLE8=Chris Cagle - What A Beautiful Day
TTITLE9=Jeff Bates - The Love Song
TTITLE10=Martina McBride - Concrete Angel
TTITLE11=Randy Travis - Three Wooden Crosses
TTITLE12=Jessica Andrews - There's More To Me Than You
TTITLE13=Montgomery Gentry - Speed
TTITLE14=Faith Hill - When The Lights Go Down
TTITLE15=Phil Vassar - This Is God
TTITLE16=Darryl Worley - Have You Forgotten
EXTD=This is THE RIGHT LABELING!!!
EXTT0=
EXTT1=
EXTT2=
EXTT3=
EXTT4=
EXTT5=
EXTT6=
EXTT7=
EXTT8=
EXTT9=
EXTT10=
EXTT11=
EXTT12=
EXTT13=
EXTT14=
EXTT15=
EXTT16=
PLAYORDER=
